#!OML:ASF H:\MichaelJackson\Top Level 1\Subject 1\Session 1\male.ASF
:FULLY-SPECIFIED
:DEGREES
156
root 5.09647 16.9071 -30.1246 -6.74195 28.9517 -4.6897
lowerback 12.9311 -3.64491 -4.47937
upperback 0.441674 -5.15633 4.98412
thorax -5.90792 -2.34472 8.77844
lowerneck -4.56795 -4.87536 -4.67008
upperneck -7.84143 -6.21511 2.55095
head -1.45102 -3.00463 1.56364
rclavicle 8.4732e-014 -1.35174e-014
rhumerus -46.9382 -2.54678 -51.3112
rradius 58.8558
rwrist 14.6928
rhand -21.0437 -18.6635
rfingers 7.12502
rthumb 5.3322 -48.5764
lclavicle 8.4732e-014 -1.35174e-014
lhumerus -36.1596 -10.5571 87.9155
lradius 46.8377
lwrist 13.3421
lhand 3.288 5.97311
lfingers 7.12502
lthumb 28.7357 33.782
rfemur -69.4964 -2.10591 3.11165
rtibia 110.453
rfoot 21.4359 -4.54516
rtoes 37.3035
lfemur -15.8188 4.35367 -18.4371
ltibia 33.1581
lfoot -12.2224 -17.8744
ltoes 20.3003
157
root 5.08536 16.9272 -30.1166 -7.21274 29.5532 -4.84091
lowerback 13.5757 -3.98693 -4.33043
upperback 0.607527 -5.60915 4.86987
thorax -6.03375 -2.57012 8.69195
lowerneck -4.59177 -4.75493 -4.63194
upperneck -7.90535 -6.04567 2.7284
head -1.46927 -2.92319 1.61626
rclavicle 3.88376e-014 -2.14687e-014
rhumerus -47.3709 -3.7062 -50.5305
rradius 59.5166
rwrist 12.3912
rhand -19.8333 -18.9801
rfingers 7.12502
rthumb 6.50073 -48.8603
lclavicle 3.88376e-014 -2.14687e-014
lhumerus -35.1646 -10.9835 87.7913
lradius 46.4738
lwrist 12.788
lhand 3.23215 6.04537
lfingers 7.12502
lthumb 28.6824 33.8633
rfemur -69.8552 -0.883373 3.15942
rtibia 104.781
rfoot 20.5622 -2.26619
rtoes 33.1
lfemur -15.1666 4.48348 -18.2782
ltibia 32.5596
lfoot -11.8919 -18.5138
ltoes 20.4892
158
root 5.07663 16.9478 -30.1092 -7.53352 30.0099 -4.9451
lowerback 14.0886 -4.28861 -4.21159
upperback 0.748444 -6.008 4.76184
thorax -6.12111 -2.76898 8.61436
lowerneck -4.61476 -4.62968 -4.61051
upperneck -7.98953 -5.86886 2.90757
head -1.49428 -2.83753 1.67298
rclavicle 5.6753e-014 -5.56597e-015
rhumerus -47.7846 -4.90074 -49.7537
rradius 60.2285
rwrist 9.41347
rhand -18.6884 -19.6728
rfingers 7.12502
rthumb 7.60587 -49.5161
lclavicle 5.6753e-014 -5.56597e-015
lhumerus -34.2178 -11.4009 87.7167
lradius 46.1876
lwrist 12.2616
lhand 3.26199 6.04154
lfingers 7.12502
lthumb 28.7109 33.8547
rfemur -69.832 0.275468 3.09719
rtibia 98.2398
rfoot 19.759 0.853634
rtoes 27.4693
lfemur -14.7323 4.74158 -18.158
ltibia 32.1854
lfoot -11.7004 -19.074
ltoes 20.6164
159
root 5.07105 16.9671 -30.1015 -7.68341 30.3242 -4.99684
lowerback 14.4492 -4.56163 -4.10333
upperback 0.857124 -6.36659 4.65338
thorax -6.16655 -2.94904 8.52474
lowerneck -4.64959 -4.49309 -4.60604
upperneck -8.07142 -5.67558 3.08793
head -1.51712 -2.74324 1.7329
rclavicle 9.79014e-014 -3.97569e-015
rhumerus -48.1552 -6.13097 -48.9857
rradius 60.9628
rwrist 5.89723
rhand -17.6858 -20.6269
rfingers 7.12502
rthumb 8.57353 -50.4329
lclavicle 9.79014e-014 -3.97569e-015
lhumerus -33.3417 -11.8063 87.675
lradius 46.0036
lwrist 11.8002
lhand 3.36009 6.01014
lfingers 7.12502
lthumb 28.8046 33.8073
rfemur -69.5187 1.31031 2.9643
rtibia 90.9621
rfoot 18.81 4.3943
rtoes 20.9719
lfemur -14.4594 5.12279 -18.0862
ltibia 31.8721
lfoot -11.57 -19.5559
ltoes 20.6411
160
root 5.06885 16.9471 -30.0784 -7.66851 30.5064 -5.0174
lowerback 14.6472 -4.79077 -4.02638
upperback 0.931248 -6.6672 4.56894
thorax -6.16444 -3.10135 8.45525
lowerneck -4.70664 -4.35707 -4.60391
upperneck -8.14135 -5.48307 3.24353
head -1.53336 -2.64891 1.78449
rclavicle 1.62506e-014 7.95139e-015
rhumerus -48.5062 -7.4235 -48.1773
rradius 61.7149
rwrist 1.98591
rhand -16.9226 -21.758
rfingers 7.12502
rthumb 9.31002 -51.5325
lclavicle 1.62506e-014 7.95139e-015
lhumerus -32.5362 -12.2298 87.702
lradius 45.9244
lwrist 11.4117
lhand 3.53881 5.92795
lfingers 7.12502
lthumb 28.9753 33.696
rfemur -69.2276 2.18266 2.80728
rtibia 83.3417
rfoot 17.5157 8.01715
rtoes 14.663
lfemur -14.3943 5.62508 -18.0178
ltibia 31.7129
lfoot -11.565 -19.9754
ltoes 20.5513
161
root 5.07076 16.9616 -30.0643 -7.50643 30.5776 -5.02379
lowerback 14.6885 -4.99978 -3.93883
upperback 0.968085 -6.93591 4.4981
thorax -6.1222 -3.23969 8.37391
lowerneck -4.79575 -4.21233 -4.60913
upperneck -8.17328 -5.27805 3.38841
head -1.53291 -2.54807 1.83241
rclavicle 3.70236e-015 -3.53837e-014
rhumerus -48.8204 -8.77594 -47.349
rradius 62.4654
rwrist -2.17345
rhand -16.4588 -23.0208
rfingers 7.12502
rthumb 9.75755 -52.7747
lclavicle 3.70236e-015 -3.53837e-014
lhumerus -31.8254 -12.6551 87.7658
lradius 45.9656
lwrist 11.1212
lhand 3.82349 5.78494
lfingers 7.12502
lthumb 29.2472 33.5059
rfemur -68.5127 2.96247 2.74193
rtibia 75.2142
rfoot 15.6097 11.2137
rtoes 9.37978
lfemur -14.4392 6.20309 -17.9904
ltibia 31.5572
lfoot -11.6258 -20.312
ltoes 20.3404
162
root 5.07598 16.9747 -30.0469 -7.22632 30.5715 -5.03164
lowerback 14.5914 -5.19491 -3.83825
upperback 0.96853 -7.18108 4.44459
thorax -6.04733 -3.36789 8.28574
lowerneck -4.92028 -4.06257 -4.62295
upperneck -8.1533 -5.06554 3.52449
head -1.51043 -2.44319 1.87718
rclavicle 1.32689e-014 1.59028e-015
rhumerus -49.1102 -10.2074 -46.4881
rradius 63.1936
rwrist -6.39815
rhand -16.3298 -24.287
rfingers 7.12502
rthumb 9.882 -54.0351
lclavicle 1.32689e-014 1.59028e-015
lhumerus -31.2183 -13.1034 87.8709
lradius 46.1326
lwrist 10.9457
lhand 4.18473 5.59199
lfingers 7.12502
lthumb 29.5921 33.2524
rfemur -67.7039 3.52748 2.84254
rtibia 67.0599
rfoot 13.1955 13.6308
rtoes 5.85592
lfemur -14.6209 6.81375 -17.9685
ltibia 31.4832
lfoot -11.7771 -20.588
ltoes 20.0637
163
root 5.08336 16.9872 -30.0264 -6.87591 30.5202 -5.06499
lowerback 14.4029 -5.36725 -3.73409
upperback 0.935128 -7.3926 4.42126
thorax -5.96149 -3.47943 8.21344
lowerneck -5.07526 -3.92 -4.63636
upperneck -8.07965 -4.86299 3.64245
head -1.46589 -2.34302 1.91429
rclavicle 3.77194e-014 -3.77691e-014
rhumerus -49.4162 -11.7234 -45.5689
rradius 63.9133
rwrist -10.5764
rhand -16.5519 -25.4939
rfingers 7.12502
rthumb 9.66772 -55.252
lclavicle 3.77194e-014 -3.77691e-014
lhumerus -30.7148 -13.6183 88.0431
lradius 46.4266
lwrist 10.8895
lhand 4.55823 5.39823
lfingers 7.12502
lthumb 29.9485 32.9948
rfemur -66.8363 3.80281 3.25856
rtibia 59.0943
rfoot 10.4756 15.0492
rtoes 3.3471
lfemur -14.8076 7.40261 -17.9288
ltibia 31.265
lfoot -11.8796 -20.8051
ltoes 19.7051
164
root 5.09189 16.9978 -30.0038 -6.491 30.4472 -5.12465
lowerback 14.166 -5.52422 -3.6165
upperback 0.873131 -7.58028 4.4162
thorax -5.88341 -3.57854 8.14501
lowerneck -5.24443 -3.78503 -4.64943
upperneck -7.96171 -4.6712 3.75384
head -1.40474 -2.24809 1.94827
rclavicle 1.8487e-013 -2.22639e-014
rhumerus -49.7578 -13.3119 -44.6151
rradius 64.6403
rwrist -14.5921
rhand -17.1052 -26.6386
rfingers 7.12502
rthumb 9.13388 -56.4208
lclavicle 1.8487e-013 -2.22639e-014
lhumerus -30.3198 -14.2159 88.2657
lradius 46.8514
lwrist 10.9546
lhand 4.91448 5.21737
lfingers 7.12502
lthumb 30.2884 32.752
rfemur -66.0085 3.59777 4.26409
rtibia 51.7062
rfoot 7.74664 15.5399
rtoes 1.70197
lfemur -15.0669 7.90162 -17.8694
ltibia 31.1065
lfoot -12.0123 -20.9416
ltoes 19.3432
165
root 5.09902 17.0073 -29.9802 -6.11007 30.3668 -5.19313
lowerback 13.9395 -5.64253 -3.5485
upperback 0.792281 -7.72374 4.43449
thorax -5.82893 -3.65288 8.12514
lowerneck -5.41055 -3.67367 -4.64789
upperneck -7.82001 -4.51327 3.84459
head -1.33609 -2.17011 1.97263
rclavicle 2.13445e-014 2.70347e-014
rhumerus -50.1682 -14.9848 -43.6033
rradius 65.3805
rwrist -18.3536
rhand -17.973 -27.7408
rfingers 7.12502
rthumb 8.2964 -57.5579
lclavicle 2.13445e-014 2.70347e-014
lhumerus -30.0186 -14.9372 88.5613
lradius 47.3977
lwrist 11.1252
lhand 5.21773 5.0341
lfingers 7.12502
lthumb 30.5776 32.5152
rfemur -65.3136 2.78991 6.12718
rtibia 45.2627
rfoot 5.14721 15.2602
rtoes -1.00293
lfemur -15.3568 8.26921 -17.7957
ltibia 31.0088
lfoot -12.1654 -20.988
ltoes 18.9637
166
root 5.10269 17.0138 -29.9569 -5.75648 30.2696 -5.24966
lowerback 13.7614 -5.72905 -3.53985
upperback 0.702676 -7.83513 4.45437
thorax -5.80741 -3.70801 8.14215
lowerneck -5.52889 -3.57455 -4.64395
upperneck -7.69882 -4.37342 3.94681
head -1.28131 -2.10142 2.00201
rclavicle 9.43482e-014 -2.5842e-014
rhumerus -50.6513 -16.6807 -42.6001
rradius 66.1659
rwrist -21.7659
rhand -19.107 -28.8287
rfingers 7.12502
rthumb 7.20185 -58.6861
lclavicle 9.43482e-014 -2.5842e-014
lhumerus -29.8147 -15.7643 88.889
lradius 48.0656
lwrist 11.3751
lhand 5.45978 4.79547
lfingers 7.12502
lthumb 30.8084 32.2333
rfemur -64.929 1.15482 9.22995
rtibia 40.1545
rfoot 2.73189 14.6126
rtoes -5.81592
lfemur -15.6597 8.47862 -17.7175
ltibia 30.9873
lfoot -12.3196 -20.9138
ltoes 18.6001
167
root 5.10067 17.0166 -29.9347 -5.45505 30.1356 -5.26183
lowerback 13.668 -5.76898 -3.6391
upperback 0.612519 -7.9033 4.46411
thorax -5.82683 -3.73696 8.21352
lowerneck -5.54311 -3.48784 -4.64171
upperneck -7.63194 -4.25327 4.06678
head -1.2604 -2.04324 2.0409
rclavicle 1.74434e-014 1.27222e-014
rhumerus -51.2131 -18.3863 -41.6221
rradius 66.9834
rwrist -24.7375
rhand -20.4831 -29.9552
rfingers 7.12502
rthumb 5.87343 -59.8538
lclavicle 1.74434e-014 1.27222e-014
lhumerus -29.7191 -16.6974 89.2428
lradius 48.85
lwrist 11.6785
lhand 5.70065 4.87741
lfingers 7.12502
lthumb 31.038 32.2716
rfemur -65.0689 -1.39687 13.832
rtibia 36.7521
rfoot 0.663398 14.1656
rtoes -11.828
lfemur -15.9398 8.54996 -17.6523
ltibia 31.0567
lfoot -12.4872 -20.7062
ltoes 18.2131
